<svg width="24" height="24" viewBox="0 0 24 24" fill="none" xmlns="http://www.w3.org/2000/svg">
<rect x="3.25" y="3.25" width="17.5" height="17.5" rx="2.75" fill="#00A49D" stroke="#00A49D" stroke-width="1.5"/>
<path fill-rule="evenodd" clip-rule="evenodd" d="M10.8942 16C10.7618 16 10.6296 15.9483 10.5284 15.8474L6.15178 11.47C5.94973 11.2682 5.94973 10.9422 6.15178 10.7404C6.35384 10.536 6.68137 10.536 6.88368 10.7404L10.8942 14.7504L17.4919 8.15329C17.6939 7.9489 18.0215 7.9489 18.2238 8.15329C18.4258 8.35508 18.4258 8.68106 18.2238 8.88285L11.26 15.8474C11.1589 15.9483 11.0267 16 10.8942 16Z" fill="white"/>
<path d="M10.8942 16C10.7618 16 10.6296 15.9483 10.5284 15.8474L6.15178 11.47C5.94973 11.2682 5.94973 10.9422 6.15178 10.7404C6.35384 10.536 6.68137 10.536 6.88368 10.7404L10.8942 14.7504L17.4919 8.15329C17.6939 7.9489 18.0215 7.9489 18.2238 8.15329C18.4258 8.35508 18.4258 8.68106 18.2238 8.88285L11.26 15.8474C11.1589 15.9483 11.0267 16 10.8942 16" stroke="white" stroke-width="0.5"/>
</svg>
