<svg width="20" height="20" viewBox="0 0 20 20" fill="none" xmlns="http://www.w3.org/2000/svg">
<path fill-rule="evenodd" clip-rule="evenodd" d="M9.05732 7.51683C8.68152 8.94605 7.38053 10.0002 5.83333 10.0002C3.99238 10.0002 2.5 8.50778 2.5 6.66683C2.5 4.82588 3.99238 3.3335 5.83333 3.3335C7.38053 3.3335 8.68152 4.3876 9.05732 5.81683H15.8333C16.3028 5.81683 16.6833 6.19739 16.6833 6.66683C16.6833 7.13627 16.3028 7.51683 15.8333 7.51683H9.05732ZM3.31667 13.3335C3.31667 12.8641 3.69722 12.4835 4.16667 12.4835H10.9427C11.3185 11.0543 12.6195 10.0002 14.1667 10.0002C16.0076 10.0002 17.5 11.4925 17.5 13.3335C17.5 15.1744 16.0076 16.6668 14.1667 16.6668C12.6195 16.6668 11.3185 15.6127 10.9427 14.1835H4.16667C3.69722 14.1835 3.31667 13.8029 3.31667 13.3335Z" fill="#191B1D" />
</svg>
